<svg xmlns="http://www.w3.org/2000/svg" viewBox="0 0 192 192" width="192" height="192">
  <defs>
    <linearGradient id="bg" x1="0" y1="0" x2="1" y2="1">
      <stop offset="0%" stop-color="#1A73E8"/>
      <stop offset="100%" stop-color="#1557B0"/>
    </linearGradient>
  </defs>
  <rect width="192" height="192" rx="40" fill="url(#bg)"/>
  <!-- Document outline -->
  <rect x="52" y="36" width="88" height="112" rx="8" fill="white" opacity="0.15"/>
  <rect x="48" y="32" width="88" height="112" rx="8" fill="white"/>
  <!-- Lines on document -->
  <rect x="60" y="52" width="64" height="6" rx="3" fill="#1A73E8" opacity="0.3"/>
  <rect x="60" y="66" width="50" height="5" rx="2.5" fill="#1A73E8" opacity="0.2"/>
  <!-- Table rows -->
  <rect x="60" y="82" width="64" height="3" rx="1.5" fill="#E8EAED"/>
  <rect x="60" y="90" width="64" height="3" rx="1.5" fill="#E8EAED"/>
  <rect x="60" y="98" width="64" height="3" rx="1.5" fill="#E8EAED"/>
  <rect x="60" y="106" width="64" height="3" rx="1.5" fill="#E8EAED"/>
  <!-- Total bar accent -->
  <rect x="60" y="116" width="64" height="8" rx="4" fill="#1A73E8" opacity="0.15"/>
  <rect x="94" y="118" width="30" height="4" rx="2" fill="#1A73E8"/>
  <!-- Currency badge -->
  <circle cx="148" cy="140" r="26" fill="#34A853"/>
  <text x="148" y="148" font-family="Georgia,serif" font-size="28" font-weight="900" fill="white" text-anchor="middle">$</text>
</svg>
